<?xml version="1.0" encoding="UTF-8"?>
<svg version="1.1" xmlns="http://www.w3.org/2000/svg" width="256" height="256">
<path d="M0 0 C84.48 0 168.96 0 256 0 C256 84.48 256 168.96 256 256 C171.52 256 87.04 256 0 256 C0 171.52 0 87.04 0 0 Z " fill="#FEFEFE" transform="translate(0,0)"/>
<path d="M0 0 C0.64710938 0.433125 1.29421875 0.86625 1.9609375 1.3125 C2.9921875 1.910625 4.0234375 2.50875 5.0859375 3.125 C5.7046875 3.516875 6.3234375 3.90875 6.9609375 4.3125 C7.54101562 3.90257812 8.12109375 3.49265625 8.71875 3.0703125 C9.49992187 2.53148437 10.28109375 1.99265625 11.0859375 1.4375 C11.85164063 0.90382813 12.61734375 0.37015625 13.40625 -0.1796875 C21.3484184 -4.86726702 31.88455299 -5.18113642 40.7578125 -3 C43.00462921 -2.07028274 44.9355333 -1.0292772 46.9609375 0.3125 C47.80591797 0.86164062 47.80591797 0.86164062 48.66796875 1.421875 C54.6668323 5.97370589 58.98977584 12.4929691 63.52148438 18.43359375 C65.80611738 21.4157063 68.13496313 24.36260547 70.4609375 27.3125 C71.37253879 28.47384613 72.28399668 29.63530484 73.1953125 30.796875 C75.07353545 33.18806923 76.95985918 35.57258314 78.8515625 37.953125 C97.33889479 61.25356026 97.33889479 61.25356026 97.33325195 72.89672852 C97.33690262 73.61963074 97.34055328 74.34253296 97.34431458 75.08734131 C97.35236151 77.45560865 97.33886085 79.8231791 97.32421875 82.19140625 C97.32369949 83.84854634 97.32421973 85.50568705 97.32572937 87.16282654 C97.32563991 90.62679301 97.31526377 94.09052547 97.29711914 97.55444336 C97.27441518 101.98507509 97.27389397 106.41536585 97.28063679 110.84603977 C97.28398453 114.26477568 97.2773318 117.68343444 97.26750755 121.10215569 C97.2636705 122.73556044 97.26250111 124.36897379 97.2640934 126.00238228 C97.26446597 128.28764207 97.25179133 130.5724712 97.2355957 132.85766602 C97.23098831 134.15559586 97.22638092 135.4535257 97.22163391 136.79078674 C96.76622099 142.94289952 94.74976398 147.47122172 90.9609375 152.3125 C83.86635959 157.74664478 78.29174668 158.62268076 69.60620117 158.69824219 C68.56493576 158.71459717 67.52367035 158.73095215 66.45085144 158.74780273 C63.01022615 158.79736688 59.56976481 158.83050126 56.12890625 158.859375 C54.36348701 158.87534603 54.36348701 158.87534603 52.56240273 158.89163971 C46.33516676 158.94503516 40.10801012 158.98380975 33.88061523 159.01269531 C28.7304802 159.0393964 23.58192597 159.09514454 18.43237305 159.17675781 C12.20832608 159.27539156 5.9857147 159.32493249 -0.23908043 159.33914948 C-2.60784273 159.35257132 -4.97657316 159.38300879 -7.34488869 159.43093109 C-25.87706197 159.78459449 -25.87706197 159.78459449 -31.21566772 156.14956665 C-33.28523842 153.60433849 -34.66784871 151.278666 -36.0390625 148.3125 C-36.93097433 147.02160336 -37.84561576 145.74591358 -38.7890625 144.4921875 C-39.5315625 143.40164062 -40.2740625 142.31109375 -41.0390625 141.1875 C-41.43222656 140.61257812 -41.82539062 140.03765625 -42.23046875 139.4453125 C-43.17019062 138.07010976 -44.10519451 136.69168467 -45.0390625 135.3125 C-45.0484082 135.94115967 -45.05775391 136.56981934 -45.06738281 137.2175293 C-45.42549266 156.40975942 -47.11297429 172.75340778 -61.0390625 187.3125 C-73.26672835 197.85987402 -73.26672835 197.85987402 -79.1015625 198.8125 C-83.09519077 198.13273349 -83.70037662 196.55847529 -86.0390625 193.3125 C-87.38219803 191.23383384 -88.69124035 189.13289668 -89.97265625 187.015625 C-90.51237816 186.12602081 -90.51237816 186.12602081 -91.06300354 185.21844482 C-91.82012429 183.9689079 -92.57554601 182.71834007 -93.3293457 181.46679688 C-94.46625738 179.57960575 -95.60862204 177.69580738 -96.75195312 175.8125 C-109.33593801 155.04036685 -109.33593801 155.04036685 -108.0390625 149.3125 C-106.39953208 147.58377233 -104.72083514 146.22698385 -102.765625 144.8671875 C-100.04924364 142.42121515 -99.16892184 139.53971497 -98.78852272 135.94481373 C-98.78818724 135.12173568 -98.78785175 134.29865763 -98.7875061 133.45063782 C-98.78212326 132.49900253 -98.77674042 131.54736725 -98.77119446 130.56689453 C-98.77531845 129.53459717 -98.77944244 128.5022998 -98.78369141 127.4387207 C-98.77826073 125.79385933 -98.77826073 125.79385933 -98.77272034 124.11576843 C-98.76583132 121.73624312 -98.76331997 119.35670203 -98.76466751 116.97716713 C-98.76563328 113.20595768 -98.75268307 109.43503286 -98.73568726 105.66386414 C-98.68943724 94.94202291 -98.66473808 84.22022592 -98.65820312 73.49829102 C-98.65403548 66.93719038 -98.62887727 60.37633121 -98.59287643 53.8153286 C-98.58309848 51.32000701 -98.58073548 48.82464456 -98.58604813 46.32930946 C-98.59314655 42.8303036 -98.57577702 39.33217503 -98.55322266 35.83325195 C-98.56139511 34.81107574 -98.56956757 33.78889954 -98.57798767 32.73574829 C-98.45527441 21.98423914 -94.93456944 14.3145954 -87.54296875 6.58203125 C-82.26811279 1.80092156 -76.33887258 -2.37686978 -69.0390625 -2.6875 C-68.38679688 -2.73648437 -67.73453125 -2.78546875 -67.0625 -2.8359375 C-56.90785819 -3.30240514 -48.62254813 -0.40181822 -41.0390625 6.3125 C-40.63816406 5.92578125 -40.23726563 5.5390625 -39.82421875 5.140625 C-28.87696382 -4.88815276 -13.20461822 -7.93178432 0 0 Z " fill="#3156A2" transform="translate(136.0390625,33.6875)"/>
<path d="M0 0 C5.46321863 3.93859948 8.68848872 7.49753278 9.9375 14.25 C10.04578125 15.09175781 10.1540625 15.93351562 10.265625 16.80078125 C10.52213559 19.14330038 10.52213559 19.14330038 12.6875 20.9375 C15.6875 21.27083333 15.6875 21.27083333 18.6875 20.9375 C21.07779886 18.54720114 20.8698674 18.04759261 20.9375 14.8125 C21.43110849 9.34754884 23.80411883 5.73496566 27.6875 1.9375 C33.09498409 -1.99603776 38.22130144 -1.83432741 44.6875 -1.0625 C50.30655597 0.79718756 53.89087143 4.71034831 56.72265625 9.796875 C57.75554939 12.08847598 58.30620933 14.2283739 58.8125 16.6875 C58.98007813 17.48671875 59.14765625 18.2859375 59.3203125 19.109375 C59.44148438 19.71265625 59.56265625 20.3159375 59.6875 20.9375 C62.02044775 20.97991723 64.35452567 20.97842937 66.6875 20.9375 C68.27337507 19.35162493 68.15103731 17.43183217 68.5 15.25 C69.85951312 8.24250957 72.86565402 4.07407478 78.6875 -0.0625 C83.1591561 -2.29832805 89.30118532 -1.72714469 94.015625 -0.4140625 C99.0567181 1.83711266 102.0773003 5.10919069 104.6875 9.9375 C105.82688138 13.35564413 105.8284342 16.00323408 105.84863281 19.60864258 C105.85359772 20.28219284 105.85856262 20.9557431 105.86367798 21.64970398 C105.87827789 23.87715682 105.88509834 26.10453842 105.890625 28.33203125 C105.89637874 29.88278708 105.90213644 31.4335429 105.90789795 32.98429871 C105.9184021 36.23668753 105.92424843 39.48905168 105.92773438 42.74145508 C105.93321449 46.90096309 105.95723442 51.060143 105.98570633 55.21954823 C106.00436789 58.42381226 106.0095402 61.62799785 106.01107025 64.83231163 C106.01408994 66.36525959 106.02209538 67.8982064 106.03525543 69.43110085 C106.05238838 71.58037595 106.05041844 73.72885737 106.04394531 75.87817383 C106.04941376 77.70992912 106.04941376 77.70992912 106.05499268 79.57868958 C105.63327465 83.433109 104.85706634 85.72154942 102.6875 88.9375 C97.75810837 92.4401621 92.92186562 92.43211925 87.09301758 92.51611328 C85.66980194 92.55291199 85.66980194 92.55291199 84.21783447 92.5904541 C81.08928964 92.66466532 77.96114963 92.71446829 74.83203125 92.7578125 C73.75903967 92.77378353 72.68604809 92.78975456 71.58054161 92.80620956 C65.90100933 92.8862519 60.22167134 92.94442337 54.54174805 92.98779297 C49.85441305 93.027807 45.17099924 93.11133489 40.48510742 93.23388672 C34.81068581 93.38225864 29.13981532 93.45619372 23.46353722 93.47747421 C21.30914131 93.49754501 19.15481801 93.54304524 17.00153542 93.61514664 C0.64173331 94.13169919 0.64173331 94.13169919 -4.27127457 90.48265839 C-7.65353485 86.99373385 -10.06222206 83.07617195 -12.30507851 78.78898239 C-13.79310247 76.05422819 -15.63439089 73.61138499 -17.5 71.125 C-20.3125 67.19276932 -20.3125 67.19276932 -20.3125 64.9375 C-18.9518618 64.93203156 -18.9518618 64.93203156 -17.56373596 64.92645264 C-8.98681096 64.88847923 -0.41026258 64.83152071 8.16639614 64.75359726 C12.57505653 64.71420219 16.98351958 64.68197487 21.39233398 64.66650391 C25.65252991 64.65128447 29.91218298 64.61674625 34.17213631 64.56919098 C35.79185309 64.55443141 37.41164739 64.54646212 39.0314312 64.54561615 C48.79184972 64.53539811 57.24872756 64.40008252 65.125 57.9375 C68.07357969 54.163318 68.94148493 51.38414097 68.953125 46.5859375 C68.95570313 45.57015625 68.95828125 44.554375 68.9609375 43.5078125 C68.94933594 41.92613281 68.94933594 41.92613281 68.9375 40.3125 C68.94523437 39.2503125 68.95296875 38.188125 68.9609375 37.09375 C68.95835937 36.08054688 68.95578125 35.06734375 68.953125 34.0234375 C68.94974121 32.6319751 68.94974121 32.6319751 68.94628906 31.21240234 C68.90404644 28.73894537 68.90404644 28.73894537 66.6875 26.9375 C63.6875 26.60416667 63.6875 26.60416667 60.6875 26.9375 C58.20386885 29.42113115 58.43805497 30.19957238 58.4140625 33.62109375 C58.3934375 34.54857422 58.3728125 35.47605469 58.3515625 36.43164062 C58.32557384 38.38988635 58.30731279 40.34825027 58.296875 42.30664062 C58.27367187 43.23541016 58.25046875 44.16417969 58.2265625 45.12109375 C58.21834473 45.97243896 58.21012695 46.82378418 58.20166016 47.70092773 C57.6875 49.9375 57.6875 49.9375 56.14273071 51.55599976 C52.76032161 53.45920135 49.66549197 53.33358499 45.88964844 53.27807617 C45.10877869 53.27851425 44.32790894 53.27895233 43.52337646 53.27940369 C40.94761982 53.27731708 38.37251765 53.2539925 35.796875 53.23046875 C34.00897579 53.22487233 32.22107197 53.22060245 30.4331665 53.21760559 C25.73127504 53.20616043 21.02966232 53.17669607 16.32788086 53.14349365 C11.52852143 53.1127857 6.72911689 53.0990987 1.9296875 53.08398438 C-7.48449736 53.05182606 -16.89847548 53.00063365 -26.3125 52.9375 C-26.41161689 47.06596769 -26.48408611 41.19492587 -26.53222656 35.32275391 C-26.55230169 33.32657382 -26.57956789 31.33045225 -26.61425781 29.33447266 C-26.66295657 26.4598138 -26.68550986 23.5859346 -26.703125 20.7109375 C-26.72377014 19.82320648 -26.74441528 18.93547546 -26.76568604 18.02084351 C-26.76824863 10.89247916 -24.559396 7.40360536 -19.75 2.125 C-14.48114913 -2.60345591 -6.45247164 -2.06966071 0 0 Z " fill="#FBFCFD" transform="translate(116.3125,89.0625)"/>
<path d="M0 0 C1.19367188 -0.02835938 2.38734375 -0.05671875 3.6171875 -0.0859375 C10.38249338 0.80304479 14.19109003 5.16795485 18.3125 10.25 C18.77446777 10.80792236 19.23643555 11.36584473 19.71240234 11.94067383 C34.2169877 29.5589754 34.2169877 29.5589754 36.125 33.375 C35.51914063 33.44976562 34.91328125 33.52453125 34.2890625 33.6015625 C25.57040373 34.96972126 18.23943263 38.25263505 12.6875 45.3125 C7.97868743 51.93294991 6.6835778 57.66382846 6.77197266 65.6081543 C6.76981247 66.5067366 6.76765228 67.40531891 6.76542664 68.33113098 C6.76235061 70.27300242 6.76591303 72.2148935 6.77544022 74.156744 C6.78924449 77.239866 6.78270083 80.32234897 6.77059937 83.4054718 C6.73973716 92.16806294 6.74444431 100.93050366 6.76464844 109.69311523 C6.7756209 115.06357028 6.7622575 120.4335455 6.73475266 125.8039341 C6.72934368 127.83987954 6.73329448 129.87587392 6.74715042 131.9117794 C6.83741678 145.33460271 6.64277724 157.21899025 -3.02929688 167.64648438 C-3.72635742 168.34741211 -3.72635742 168.34741211 -4.4375 169.0625 C-5.14036133 169.82723633 -5.14036133 169.82723633 -5.85742188 170.60742188 C-8.43410971 173.31384504 -10.23345891 174.66857686 -13.875 175.375 C-15.97939576 171.90904872 -18.07883102 168.4401467 -20.17382812 164.96850586 C-20.8863564 163.78931036 -21.60020591 162.61091213 -22.31542969 161.43334961 C-23.34662095 159.73504367 -24.37258416 158.03356684 -25.3984375 156.33203125 C-26.01638184 155.31085205 -26.63432617 154.28967285 -27.27099609 153.23754883 C-28.7271183 150.63891369 -29.97613025 148.2144861 -30.875 145.375 C-29.828125 143.1640625 -29.828125 143.1640625 -28.125 141 C-22.60497405 133.90650871 -22.58758022 126.89407844 -22.63549805 118.24243164 C-22.63247681 116.59231331 -22.63247681 116.59231331 -22.62939453 114.90885925 C-22.62585831 112.52826755 -22.62660463 110.14766644 -22.63117027 107.76707649 C-22.63677659 103.99625484 -22.62758324 100.22573925 -22.6139679 96.4549408 C-22.5768917 85.73662073 -22.55803191 75.01842724 -22.56958008 64.30004883 C-22.57647709 57.73661982 -22.5571489 51.17356253 -22.52369118 44.61019707 C-22.51574577 42.1132166 -22.51700238 39.61618895 -22.52771568 37.11921883 C-22.54206629 33.62465657 -22.5257461 30.13145057 -22.50268555 26.63696289 C-22.52033714 25.09762589 -22.52033714 25.09762589 -22.53834534 23.52719116 C-22.4427351 16.12267943 -20.62321909 11.1442922 -15.36158276 5.85307407 C-10.28856323 1.42195432 -6.71958009 0.07225355 0 0 Z " fill="#FDFDFE" transform="translate(71.875,42.625)"/>
<path d="M0 0 C7.62305142 5.59119839 13.26243096 14.14423564 19.06640625 21.515625 C21.24172969 24.20586205 23.41805754 26.89525669 25.59765625 29.58203125 C27.06640625 31.515625 27.06640625 31.515625 27.06640625 32.515625 C26.46054688 32.60199219 25.8546875 32.68835938 25.23046875 32.77734375 C16.73370303 34.202186 8.91880985 36.93167094 3.06640625 43.515625 C2.40640625 43.515625 1.74640625 43.515625 1.06640625 43.515625 C-0.70015065 41.44709256 -2.35684553 39.36933428 -3.99609375 37.203125 C-4.99388625 35.90815603 -5.99259535 34.61389282 -6.9921875 33.3203125 C-7.73831299 32.35109863 -7.73831299 32.35109863 -8.49951172 31.36230469 C-11.8835129 27.00469745 -15.42504073 22.77291685 -18.93359375 18.515625 C-20.62269837 16.45443345 -22.30930688 14.39121533 -23.99609375 12.328125 C-24.75019531 11.40644531 -25.50429687 10.48476563 -26.28125 9.53515625 C-26.82652344 8.86871094 -27.37179688 8.20226562 -27.93359375 7.515625 C-26.54760575 4.16496328 -25.15797605 2.68190649 -22.05859375 0.828125 C-21.38054687 0.41175781 -20.7025 -0.00460938 -20.00390625 -0.43359375 C-13.48758414 -3.74093459 -6.32199748 -3.51359547 0 0 Z " fill="#FAFBFC" transform="translate(129.93359375,43.484375)"/>
<path d="M0 0 C2.69055639 2.40118305 4.81459545 5.13975682 7 8 C7.78503906 9.010625 8.57007813 10.02125 9.37890625 11.0625 C11.09281187 13.27579998 12.79385707 15.49832318 14.48828125 17.7265625 C17.44718455 21.60548015 20.51702112 25.39239743 23.6015625 29.171875 C25 31 25 31 25 32 C24.07058594 32.21914062 23.14117187 32.43828125 22.18359375 32.6640625 C14.77126024 34.56545358 9.40836443 36.3340944 4 42 C0.31309608 40.50553115 -1.4957133 38.47761573 -3.9375 35.375 C-4.71609375 34.39660156 -5.4946875 33.41820312 -6.296875 32.41015625 C-6.72419922 31.86891113 -7.15152344 31.32766602 -7.59179688 30.77001953 C-9.13371385 28.8319304 -10.6972074 26.91279501 -12.265625 24.99609375 C-12.831604 24.30402832 -13.39758301 23.61196289 -13.98071289 22.89892578 C-15.08895802 21.54417498 -16.19750193 20.18966851 -17.30639648 18.83544922 C-20.99106028 14.31002404 -24.53112467 9.69272748 -28 5 C-21.87965052 -4.43553877 -9.30792399 -5.55077009 0 0 Z " fill="#F9FBFC" transform="translate(178,44)"/>
<path d="M0 0 C0.33 0.66 0.66 1.32 1 2 C0.22265625 3.7265625 0.22265625 3.7265625 -0.9375 5.625 C-1.618125 6.73875 -2.29875 7.8525 -3 9 C-3.66 9 -4.32 9 -5 9 C-3.7508258 5.54074837 -2.32472205 2.85306797 0 0 Z " fill="#41609E" transform="translate(46,43)"/>
<path d="M0 0 C0 0.99 0 1.98 0 3 C-2.5 5.1875 -2.5 5.1875 -5 7 C-5 6.01 -5 5.02 -5 4 C-2.5 1.8125 -2.5 1.8125 0 0 Z " fill="#4462A1" transform="translate(91,81)"/>
</svg>
